<svg width="56" height="56" viewBox="0 0 56 56" fill="none" xmlns="http://www.w3.org/2000/svg">
<g id="truck 1">
<path id="Vector" d="M37.3334 7H2.33337V37.3333H37.3334V7Z" stroke="#F2994A" stroke-width="4.66667" stroke-linecap="round" stroke-linejoin="round"/>
<path id="Vector_2" d="M37.3334 18.6667H46.6667L53.6667 25.6667V37.3334H37.3334V18.6667Z" stroke="#F2994A" stroke-width="4.66667" stroke-linecap="round" stroke-linejoin="round"/>
<path id="Vector_3" d="M12.8333 49C16.055 49 18.6667 46.3883 18.6667 43.1666C18.6667 39.945 16.055 37.3333 12.8333 37.3333C9.61167 37.3333 7 39.945 7 43.1666C7 46.3883 9.61167 49 12.8333 49Z" stroke="#F2994A" stroke-width="4.66667" stroke-linecap="round" stroke-linejoin="round"/>
<path id="Vector_4" d="M43.1667 49C46.3884 49 49 46.3883 49 43.1666C49 39.945 46.3884 37.3333 43.1667 37.3333C39.945 37.3333 37.3334 39.945 37.3334 43.1666C37.3334 46.3883 39.945 49 43.1667 49Z" stroke="#F2994A" stroke-width="4.66667" stroke-linecap="round" stroke-linejoin="round"/>
</g>
</svg>
